<svg width="155" height="23" viewBox="0 0 155 23" fill="none" xmlns="http://www.w3.org/2000/svg">
<path d="M0.377891 22V0.999999H4.21789V19H13.5179V22H0.377891ZM22.3913 22.36C20.5313 22.36 19.0913 21.78 18.0713 20.62C17.0713 19.46 16.5713 17.76 16.5713 15.52V7.12H20.3813V15.16C20.3813 16.44 20.6413 17.42 21.1613 18.1C21.6813 18.78 22.5013 19.12 23.6213 19.12C24.6813 19.12 25.5513 18.74 26.2313 17.98C26.9313 17.22 27.2813 16.16 27.2813 14.8V7.12H31.1213V22H27.7313L27.4313 19.48C26.9713 20.36 26.3013 21.06 25.4213 21.58C24.5613 22.1 23.5513 22.36 22.3913 22.36ZM37.1333 4.81C36.4333 4.81 35.8533 4.6 35.3933 4.18C34.9533 3.76 34.7333 3.23 34.7333 2.59C34.7333 1.95 34.9533 1.43 35.3933 1.03C35.8533 0.609999 36.4333 0.399999 37.1333 0.399999C37.8333 0.399999 38.4033 0.609999 38.8433 1.03C39.3033 1.43 39.5333 1.95 39.5333 2.59C39.5333 3.23 39.3033 3.76 38.8433 4.18C38.4033 4.6 37.8333 4.81 37.1333 4.81ZM35.2133 22V7.12H39.0533V22H35.2133ZM42.1013 22V18.91L49.6913 10.3H42.1913V7.12H54.0713V10.21L46.3613 18.82H54.2213V22H42.1013ZM74.1652 22.36C72.0452 22.36 70.2252 21.91 68.7052 21.01C67.1852 20.09 66.0152 18.82 65.1952 17.2C64.3752 15.56 63.9652 13.67 63.9652 11.53C63.9652 9.39 64.3752 7.5 65.1952 5.86C66.0152 4.22 67.1852 2.94 68.7052 2.02C70.2252 1.1 72.0452 0.64 74.1652 0.64C76.6852 0.64 78.7452 1.27 80.3452 2.53C81.9652 3.77 82.9752 5.52 83.3752 7.78H79.1452C78.8852 6.64 78.3252 5.75 77.4652 5.11C76.6252 4.45 75.5052 4.12 74.1052 4.12C72.1652 4.12 70.6452 4.78 69.5452 6.1C68.4452 7.42 67.8952 9.23 67.8952 11.53C67.8952 13.83 68.4452 15.64 69.5452 16.96C70.6452 18.26 72.1652 18.91 74.1052 18.91C75.5052 18.91 76.6252 18.61 77.4652 18.01C78.3252 17.39 78.8852 16.54 79.1452 15.46H83.3752C82.9752 17.62 81.9652 19.31 80.3452 20.53C78.7452 21.75 76.6852 22.36 74.1652 22.36ZM91.8144 22.36C90.5344 22.36 89.4844 22.16 88.6644 21.76C87.8444 21.34 87.2344 20.79 86.8344 20.11C86.4344 19.43 86.2344 18.68 86.2344 17.86C86.2344 16.48 86.7744 15.36 87.8544 14.5C88.9344 13.64 90.5544 13.21 92.7144 13.21H96.4944V12.85C96.4944 11.83 96.2044 11.08 95.6244 10.6C95.0444 10.12 94.3244 9.88 93.4644 9.88C92.6844 9.88 92.0044 10.07 91.4244 10.45C90.8444 10.81 90.4844 11.35 90.3444 12.07H86.5944C86.6944 10.99 87.0544 10.05 87.6744 9.25C88.3144 8.45 89.1344 7.84 90.1344 7.42C91.1344 6.98 92.2544 6.76 93.4944 6.76C95.6144 6.76 97.2844 7.29 98.5044 8.35C99.7244 9.41 100.334 10.91 100.334 12.85V22H97.0644L96.7044 19.6C96.2644 20.4 95.6444 21.06 94.8444 21.58C94.0644 22.1 93.0544 22.36 91.8144 22.36ZM92.6844 19.36C93.7844 19.36 94.6344 19 95.2344 18.28C95.8544 17.56 96.2444 16.67 96.4044 15.61H93.1344C92.1144 15.61 91.3844 15.8 90.9444 16.18C90.5044 16.54 90.2844 16.99 90.2844 17.53C90.2844 18.11 90.5044 18.56 90.9444 18.88C91.3844 19.2 91.9644 19.36 92.6844 19.36ZM103.999 22V7.12H107.419L107.779 9.91C108.319 8.95 109.049 8.19 109.969 7.63C110.909 7.05 112.009 6.76 113.269 6.76V10.81H112.189C111.349 10.81 110.599 10.94 109.939 11.2C109.279 11.46 108.759 11.91 108.379 12.55C108.019 13.19 107.839 14.08 107.839 15.22V22H103.999ZM115.893 22V0.399999H119.733V22H115.893ZM130.797 22.36C129.357 22.36 128.057 22.03 126.897 21.37C125.757 20.71 124.847 19.8 124.167 18.64C123.507 17.46 123.177 16.1 123.177 14.56C123.177 13.02 123.517 11.67 124.197 10.51C124.877 9.33 125.787 8.41 126.927 7.75C128.087 7.09 129.387 6.76 130.827 6.76C132.247 6.76 133.527 7.09 134.667 7.75C135.827 8.41 136.737 9.33 137.397 10.51C138.077 11.67 138.417 13.02 138.417 14.56C138.417 16.1 138.077 17.46 137.397 18.64C136.737 19.8 135.827 20.71 134.667 21.37C133.507 22.03 132.217 22.36 130.797 22.36ZM130.797 19.03C131.797 19.03 132.667 18.66 133.407 17.92C134.147 17.16 134.517 16.04 134.517 14.56C134.517 13.08 134.147 11.97 133.407 11.23C132.667 10.47 131.807 10.09 130.827 10.09C129.807 10.09 128.927 10.47 128.187 11.23C127.467 11.97 127.107 13.08 127.107 14.56C127.107 16.04 127.467 17.16 128.187 17.92C128.927 18.66 129.797 19.03 130.797 19.03ZM148 22.36C146.68 22.36 145.52 22.15 144.52 21.73C143.52 21.29 142.72 20.69 142.12 19.93C141.52 19.17 141.16 18.29 141.04 17.29H144.91C145.03 17.87 145.35 18.37 145.87 18.79C146.41 19.19 147.1 19.39 147.94 19.39C148.78 19.39 149.39 19.22 149.77 18.88C150.17 18.54 150.37 18.15 150.37 17.71C150.37 17.07 150.09 16.64 149.53 16.42C148.97 16.18 148.19 15.95 147.19 15.73C146.55 15.59 145.9 15.42 145.24 15.22C144.58 15.02 143.97 14.77 143.41 14.47C142.87 14.15 142.43 13.75 142.09 13.27C141.75 12.77 141.58 12.16 141.58 11.44C141.58 10.12 142.1 9.01 143.14 8.11C144.2 7.21 145.68 6.76 147.58 6.76C149.34 6.76 150.74 7.17 151.78 7.99C152.84 8.81 153.47 9.94 153.67 11.38H150.04C149.82 10.28 148.99 9.73 147.55 9.73C146.83 9.73 146.27 9.87 145.87 10.15C145.49 10.43 145.3 10.78 145.3 11.2C145.3 11.64 145.59 11.99 146.17 12.25C146.75 12.51 147.52 12.75 148.48 12.97C149.52 13.21 150.47 13.48 151.33 13.78C152.21 14.06 152.91 14.49 153.43 15.07C153.95 15.63 154.21 16.44 154.21 17.5C154.23 18.42 153.99 19.25 153.49 19.99C152.99 20.73 152.27 21.31 151.33 21.73C150.39 22.15 149.28 22.36 148 22.36Z" fill="#5DC521"/>
</svg>
