<svg width="156" height="25" viewBox="0 0 156 25" fill="none" xmlns="http://www.w3.org/2000/svg">
<path d="M0.00862503 24V1.6H2.69663V21.856H13.1286V24H0.00862503ZM22.4531 24.384C20.5758 24.384 19.0825 23.8187 17.9731 22.688C16.8638 21.536 16.3091 19.776 16.3091 17.408V8.128H18.9971V17.12C18.9971 20.4267 20.3518 22.08 23.0611 22.08C24.4478 22.08 25.5891 21.5893 26.4851 20.608C27.4025 19.6053 27.8611 18.1867 27.8611 16.352V8.128H30.5491V24H28.1171L27.9251 21.152C27.4345 22.1547 26.6985 22.944 25.7171 23.52C24.7571 24.096 23.6691 24.384 22.4531 24.384ZM36.6056 4.608C36.0723 4.608 35.6243 4.43733 35.2616 4.096C34.9203 3.73333 34.7496 3.28533 34.7496 2.752C34.7496 2.24 34.9203 1.81333 35.2616 1.472C35.6243 1.13067 36.0723 0.959999 36.6056 0.959999C37.1176 0.959999 37.555 1.13067 37.9176 1.472C38.2803 1.81333 38.4616 2.24 38.4616 2.752C38.4616 3.28533 38.2803 3.73333 37.9176 4.096C37.555 4.43733 37.1176 4.608 36.6056 4.608ZM35.2616 24V8.128H37.9496V24H35.2616ZM41.5419 24V21.792L50.3739 10.368H41.7019V8.128H53.3819V10.336L44.5499 21.76H53.5419V24H41.5419ZM75.5514 24.384C73.354 24.384 71.4554 23.904 69.8554 22.944C68.2767 21.9627 67.05 20.608 66.1754 18.88C65.3007 17.1307 64.8634 15.104 64.8634 12.8C64.8634 10.5173 65.3007 8.512 66.1754 6.784C67.05 5.03467 68.2767 3.66933 69.8554 2.688C71.4554 1.70667 73.354 1.216 75.5514 1.216C78.1114 1.216 80.1914 1.83467 81.7914 3.072C83.4127 4.288 84.4474 5.99467 84.8954 8.192H81.9194C81.578 6.80533 80.874 5.696 79.8074 4.864C78.762 4.01067 77.3434 3.584 75.5514 3.584C73.9514 3.584 72.554 3.95733 71.3594 4.704C70.1647 5.42933 69.2367 6.48533 68.5754 7.872C67.9354 9.23733 67.6154 10.88 67.6154 12.8C67.6154 14.72 67.9354 16.3733 68.5754 17.76C69.2367 19.1253 70.1647 20.1813 71.3594 20.928C72.554 21.6533 73.9514 22.016 75.5514 22.016C77.3434 22.016 78.762 21.6107 79.8074 20.8C80.874 19.968 81.578 18.8693 81.9194 17.504H84.8954C84.4474 19.6587 83.4127 21.344 81.7914 22.56C80.1914 23.776 78.1114 24.384 75.5514 24.384ZM93.8786 24.384C92.556 24.384 91.4573 24.16 90.5826 23.712C89.708 23.264 89.0573 22.6667 88.6306 21.92C88.204 21.1733 87.9906 20.3627 87.9906 19.488C87.9906 17.8667 88.6093 16.6187 89.8466 15.744C91.084 14.8693 92.7693 14.432 94.9026 14.432H99.1906V14.24C99.1906 12.8533 98.828 11.808 98.1026 11.104C97.3773 10.3787 96.4066 10.016 95.1906 10.016C94.1453 10.016 93.2386 10.2827 92.4706 10.816C91.724 11.328 91.2546 12.0853 91.0626 13.088H88.3106C88.4173 11.936 88.8013 10.9653 89.4626 10.176C90.1453 9.38667 90.988 8.78933 91.9906 8.384C92.9933 7.95733 94.06 7.744 95.1906 7.744C97.4093 7.744 99.0733 8.34133 100.183 9.536C101.313 10.7093 101.879 12.2773 101.879 14.24V24H99.4786L99.3186 21.152C98.8706 22.048 98.2093 22.816 97.3346 23.456C96.4813 24.0747 95.3293 24.384 93.8786 24.384ZM94.2946 22.112C95.3186 22.112 96.1933 21.8453 96.9186 21.312C97.6653 20.7787 98.2306 20.0853 98.6146 19.232C98.9986 18.3787 99.1906 17.4827 99.1906 16.544V16.512H95.1266C93.548 16.512 92.428 16.7893 91.7666 17.344C91.1266 17.8773 90.8066 18.5493 90.8066 19.36C90.8066 20.192 91.1053 20.864 91.7026 21.376C92.3213 21.8667 93.1853 22.112 94.2946 22.112ZM105.911 24V8.128H108.343L108.567 11.168C109.058 10.1227 109.804 9.29067 110.807 8.672C111.81 8.05333 113.047 7.744 114.519 7.744V10.56H113.783C112.844 10.56 111.98 10.7307 111.191 11.072C110.402 11.392 109.772 11.9467 109.303 12.736C108.834 13.5253 108.599 14.6133 108.599 16V24H105.911ZM117.536 24V0.959999H120.224V24H117.536ZM131.862 24.384C130.369 24.384 129.025 24.0427 127.83 23.36C126.635 22.6773 125.686 21.7173 124.982 20.48C124.299 19.2213 123.958 17.7493 123.958 16.064C123.958 14.3787 124.31 12.9173 125.014 11.68C125.718 10.4213 126.667 9.45067 127.862 8.768C129.078 8.08533 130.433 7.744 131.926 7.744C133.419 7.744 134.763 8.08533 135.958 8.768C137.153 9.45067 138.091 10.4213 138.774 11.68C139.478 12.9173 139.83 14.3787 139.83 16.064C139.83 17.7493 139.478 19.2213 138.774 20.48C138.07 21.7173 137.11 22.6773 135.894 23.36C134.699 24.0427 133.355 24.384 131.862 24.384ZM131.862 22.08C132.779 22.08 133.633 21.856 134.422 21.408C135.211 20.96 135.851 20.288 136.342 19.392C136.833 18.496 137.078 17.3867 137.078 16.064C137.078 14.7413 136.833 13.632 136.342 12.736C135.873 11.84 135.243 11.168 134.454 10.72C133.665 10.272 132.822 10.048 131.926 10.048C131.009 10.048 130.155 10.272 129.366 10.72C128.577 11.168 127.937 11.84 127.446 12.736C126.955 13.632 126.71 14.7413 126.71 16.064C126.71 17.3867 126.955 18.496 127.446 19.392C127.937 20.288 128.566 20.96 129.334 21.408C130.123 21.856 130.966 22.08 131.862 22.08ZM149.647 24.384C147.749 24.384 146.17 23.904 144.911 22.944C143.653 21.984 142.917 20.6827 142.703 19.04H145.455C145.626 19.872 146.063 20.5973 146.767 21.216C147.493 21.8133 148.463 22.112 149.679 22.112C150.81 22.112 151.642 21.8773 152.175 21.408C152.709 20.9173 152.975 20.3413 152.975 19.68C152.975 18.72 152.623 18.08 151.919 17.76C151.237 17.44 150.266 17.152 149.007 16.896C148.154 16.7253 147.301 16.48 146.447 16.16C145.594 15.84 144.879 15.392 144.303 14.816C143.727 14.2187 143.439 13.44 143.439 12.48C143.439 11.0933 143.951 9.96267 144.975 9.088C146.021 8.192 147.429 7.744 149.199 7.744C150.885 7.744 152.261 8.17067 153.327 9.024C154.415 9.856 155.045 11.0507 155.215 12.608H152.559C152.453 11.7973 152.101 11.168 151.503 10.72C150.927 10.2507 150.149 10.016 149.167 10.016C148.207 10.016 147.461 10.2187 146.927 10.624C146.415 11.0293 146.159 11.5627 146.159 12.224C146.159 12.864 146.49 13.3653 147.151 13.728C147.834 14.0907 148.751 14.4 149.903 14.656C150.885 14.8693 151.813 15.136 152.687 15.456C153.583 15.7547 154.309 16.2133 154.863 16.832C155.439 17.4293 155.727 18.304 155.727 19.456C155.749 20.8853 155.205 22.0693 154.095 23.008C153.007 23.9253 151.525 24.384 149.647 24.384Z" fill="#5DC521"/>
</svg>
